<svg width="48" height="48" viewBox="0 0 48 48" fill="none" xmlns="http://www.w3.org/2000/svg">
<g filter="url(#filter0_d)">
<path fill-rule="evenodd" clip-rule="evenodd" d="M24 41C34.4934 41 43 32.4934 43 22C43 11.5066 34.4934 3 24 3C13.5066 3 5 11.5066 5 22C5 32.4934 13.5066 41 24 41ZM25.4142 30.849L38.1421 18.1211C38.9232 17.34 38.9232 16.0737 38.1421 15.2926C37.3611 14.5116 36.0948 14.5116 35.3137 15.2926L24 26.6064L12.6863 15.2926C11.9052 14.5116 10.6389 14.5116 9.85786 15.2926C9.07682 16.0737 9.07682 17.34 9.85786 18.1211L22.5858 30.849C23.3668 31.63 24.6332 31.63 25.4142 30.849Z" fill="#5A7160"/>
</g>
<defs>
<filter id="filter0_d" x="0" y="0" width="48" height="48" filterUnits="userSpaceOnUse" color-interpolation-filters="sRGB">
<feFlood flood-opacity="0" result="BackgroundImageFix"/>
<feColorMatrix in="SourceAlpha" type="matrix" values="0 0 0 0 0 0 0 0 0 0 0 0 0 0 0 0 0 0 127 0"/>
<feOffset dy="2"/>
<feGaussianBlur stdDeviation="2.5"/>
<feColorMatrix type="matrix" values="0 0 0 0 0 0 0 0 0 0 0 0 0 0 0 0 0 0 0.23 0"/>
<feBlend mode="normal" in2="BackgroundImageFix" result="effect1_dropShadow"/>
<feBlend mode="normal" in="SourceGraphic" in2="effect1_dropShadow" result="shape"/>
</filter>
</defs>
</svg>
