<svg width="265" height="50" viewBox="0 0 265 50" fill="none" xmlns="http://www.w3.org/2000/svg">
<g clip-path="url(#clip0)">
<path d="M105.6 21.1C106.1 22.4 107.1 23.7 108.6 24.8C111.2 23.8 113.1 22.7 114.2 21.4L116.7 23.3C115.2 24.6 113.3 25.7 111.1 26.5C114.3 28.2 117 29.1 119.3 29.4L118.2 32.3C114.7 31.6 111.4 30.3 108.5 28.3C105.6 26.3 103.5 23.9 102.3 21.1H98.2V28.5C99.3 28.3 100.4 28 101.6 27.8C102.6 27.6 103.7 27.3 104.9 26.9V29.9C101.6 30.9 97.4 31.7 92.2 32.4L91.9 29.4C92.9 29.4 94 29.3 95.3 29V21.2H91.5V18.6H95.5V5.60001H117.6V8.20001H98.6V10H116.5V12.4H98.6V14.3H116.5V16.6H98.6V18.6H119.4V21.2H105.6V21.1Z" fill="white"/>
<path d="M159.3 23.7C159.8 24.9 160.9 26.1 162.5 27.3C164.1 28.5 165.9 29.3 167.8 29.7L166.3 32.4C164.3 31.9 162.3 30.9 160.4 29.2C158.5 27.6 157.2 25.8 156.6 23.8C155.8 26 154.4 27.9 152.5 29.4C150.5 30.9 148.5 31.9 146.4 32.4L144.7 29.9C146.8 29.4 148.8 28.6 150.5 27.4C152.2 26.2 153.3 25 153.7 23.8H146.7V21.5H154.2C154.3 21.1 154.3 20.6 154.3 20.2C154.3 19.8 154.3 19.4 154.4 19H145C145 19.1 145 19.2 145 19.3C145 24.2 144.1 28.5 142.2 32.2L140 30C140.7 28.6 141.3 26.9 141.8 24.9C142.3 22.8 142.5 18.9 142.5 13.3V6.90001H153.7C153.3 6.00001 153 5.30001 152.7 4.80001L155.7 4.60001C156.1 5.30001 156.4 6.00001 156.7 6.90001H167.8V9.30001H145V16.5H154.4V14H146.6V11.7H154.4V9.80001H157.1V11.6H165.3V16.4H167.8V18.8H165.3V23.7H159.3ZM162.5 21.3V18.7H157.1C157.1 19.6 157 20.5 157 21.3H162.5ZM157.2 16.4H162.6V13.9H157.2V16.4Z" fill="white"/>
<path d="M206.1 15.1C206.6 17.5 207.6 20 209.3 22.7C211 25.4 213.3 27.6 216.2 29.6L213.9 32.3C208.6 28.8 204.9 23.1 203 15.2H202.5C201.2 22.3 197.2 28 190.6 32.4L188.4 29.6C191.2 28 193.6 25.9 195.6 23.3C197.6 20.7 198.8 18 199.3 15.2H189.1V12H199.8C200.1 10.2 200.2 7.70001 200.2 4.60001H203.3C203.3 8.00001 203.2 10.5 203.1 12H215.6V15.1H206.1Z" fill="white"/>
<path d="M258.9 20.6V22.8C257.2 23.7 255 24.6 252.5 25.4H264.8V27.8H252.5V29C252.5 31.1 251.6 32.2 249.8 32.2H245.5L244.8 29.8L248.9 29.9C249.5 29.9 249.8 29.6 249.8 29V27.8H237V25.4H249.8V24.1C251.2 23.9 252.9 23.4 255 22.8H242.6V20.6H258.9ZM261.5 19.3H240.2V23.6H237.6V17H239.1L238.8 5.6C241.4 5.5 243.5 5.2 245.3 4.7L246.6 6.9C245.5 7.3 243.7 7.5 241.3 7.7L241.4 9.2H246V11.2H241.5V12.9H246V14.9H241.6L241.7 16.9H260.2V14.9H256V12.9H260.2L260.3 11.2H256V9.2H260.3V7.6H255.6V5.3H262.9L262.6 17H264.2V23.7H261.5V19.3ZM251.3 8.7C250.3 9.3 249.2 9.9 247.8 10.5L246.3 8.5C248 8 249 7.6 249.6 7.3C249.1 6.9 248.4 6.4 247.6 5.9L249.2 4.5C250 5 250.7 5.5 251.5 6.1C252.3 5.5 252.9 5 253.3 4.5L254.8 5.8C254.4 6.4 253.8 6.9 253.1 7.4C253.5 7.8 254 8.3 254.7 9L252.9 10.3C252 9.2 251.5 8.7 251.3 8.7ZM251.4 14.7C250.5 15.3 249.3 15.9 247.9 16.4L246.6 14.4C248 14.1 249 13.7 249.7 13.3C249.3 13 248.6 12.5 247.7 11.9L249.2 10.6C249.6 10.9 249.9 11.1 250.2 11.3C250.6 11.6 251 11.9 251.4 12.2C252 11.8 252.7 11.2 253.4 10.4L255 11.7C254.3 12.4 253.6 13 253 13.5C253.6 14 254.1 14.5 254.7 15.1L252.8 16.5C252.1 15.3 251.6 14.7 251.4 14.7Z" fill="white"/>
<path d="M97.2 42.4L98.8 42.9C98.6 43.8 98.1 44.5 97.6 44.9C97 45.3 96.3 45.5 95.4 45.5C94.3 45.5 93.4 45.1 92.7 44.4C92 43.7 91.7 42.6 91.7 41.4C91.7 40 92.1 39 92.8 38.2C93.5 37.4 94.4 37.1 95.6 37.1C96.6 37.1 97.4 37.4 98 38C98.4 38.3 98.7 38.9 98.8 39.5L97.2 39.9C97.1 39.5 96.9 39.1 96.6 38.9C96.3 38.7 95.9 38.5 95.5 38.5C94.9 38.5 94.4 38.7 94 39.2C93.6 39.7 93.4 40.3 93.4 41.3C93.4 42.3 93.6 43.1 94 43.5C94.4 43.9 94.9 44.2 95.4 44.2C95.8 44.2 96.2 44.1 96.5 43.8C96.8 43.4 97 43 97.2 42.4Z" fill="white"/>
<path d="M101.3 45.4V37.2H102.9V40.4H106.1V37.2H107.7V45.4H106.1V41.8H103V45.4H101.3Z" fill="white"/>
<path d="M118.1 45.4H116.3L115.6 43.5H112.3L111.6 45.4H109.9L113.1 37.2H114.8L118.1 45.4ZM115 42.2L113.9 39.2L112.8 42.2H115Z" fill="white"/>
<path d="M120.1 45.4V37.2H121.7L125 42.7V37.2H126.5V45.4H124.8L121.5 40.1V45.4H120.1Z" fill="white"/>
<path d="M133.3 42.4V41H136.9V44.3C136.6 44.6 136.1 44.9 135.4 45.2C134.7 45.5 134.1 45.6 133.4 45.6C132.5 45.6 131.8 45.4 131.2 45.1C130.6 44.7 130.1 44.2 129.8 43.6C129.5 42.9 129.3 42.2 129.3 41.4C129.3 40.5 129.5 39.8 129.8 39.1C130.2 38.4 130.7 37.9 131.4 37.6C131.9 37.3 132.6 37.2 133.4 37.2C134.4 37.2 135.2 37.4 135.8 37.8C136.4 38.2 136.7 38.8 136.9 39.6L135.3 39.9C135.2 39.5 135 39.2 134.7 38.9C134.4 38.7 134 38.6 133.5 38.6C132.8 38.6 132.2 38.8 131.8 39.3C131.4 39.8 131.2 40.4 131.2 41.3C131.2 42.3 131.4 43 131.8 43.5C132.2 44 132.8 44.2 133.5 44.2C133.8 44.2 134.2 44.1 134.5 44C134.8 43.9 135.1 43.7 135.4 43.5V42.5H133.3V42.4Z" fill="white"/>
<path d="M147.6 42.4V41H151.2V44.3C150.9 44.6 150.4 44.9 149.7 45.2C149 45.5 148.4 45.6 147.7 45.6C146.8 45.6 146.1 45.4 145.5 45.1C144.9 44.8 144.4 44.2 144.1 43.6C143.8 42.9 143.6 42.2 143.6 41.4C143.6 40.5 143.8 39.8 144.1 39.1C144.5 38.4 145 37.9 145.7 37.6C146.2 37.3 146.9 37.2 147.7 37.2C148.7 37.2 149.5 37.4 150.1 37.8C150.7 38.2 151 38.8 151.2 39.6L149.6 39.9C149.5 39.5 149.3 39.2 149 38.9C148.7 38.7 148.3 38.6 147.8 38.6C147.1 38.6 146.5 38.8 146.1 39.3C145.7 39.8 145.5 40.4 145.5 41.3C145.5 42.3 145.7 43 146.1 43.5C146.5 44 147.1 44.2 147.8 44.2C148.1 44.2 148.5 44.1 148.8 44C149.1 43.9 149.4 43.7 149.7 43.5V42.5H147.6V42.4Z" fill="white"/>
<path d="M153.8 37.2H155.4V41.6C155.4 42.3 155.4 42.8 155.5 43C155.6 43.3 155.7 43.6 156 43.8C156.3 44 156.6 44.1 157.1 44.1C157.6 44.1 157.9 44 158.2 43.8C158.5 43.6 158.6 43.4 158.6 43.1C158.6 42.8 158.7 42.4 158.7 41.7V37.2H160.3V41.5C160.3 42.5 160.3 43.2 160.2 43.6C160.1 44 159.9 44.3 159.7 44.6C159.5 44.9 159.1 45.1 158.7 45.3C158.3 45.5 157.8 45.5 157.1 45.5C156.3 45.5 155.7 45.4 155.3 45.2C154.9 45 154.6 44.8 154.3 44.5C154.1 44.2 153.9 43.9 153.8 43.6C153.7 43.1 153.6 42.4 153.6 41.5V37.2H153.8Z" fill="white"/>
<path d="M163.2 45.4V37.2H164.8L168.1 42.7V37.2H169.6V45.4H168L164.7 40.1V45.4H163.2Z" fill="white"/>
<path d="M176.4 42.4V41H180V44.3C179.7 44.6 179.2 44.9 178.5 45.2C177.8 45.5 177.2 45.6 176.5 45.6C175.6 45.6 174.9 45.4 174.3 45.1C173.7 44.8 173.2 44.2 172.9 43.6C172.6 42.9 172.4 42.2 172.4 41.4C172.4 40.5 172.6 39.8 172.9 39.1C173.3 38.4 173.8 37.9 174.5 37.6C175 37.3 175.7 37.2 176.5 37.2C177.5 37.2 178.3 37.4 178.9 37.8C179.5 38.2 179.8 38.8 180 39.6L178.4 39.9C178.3 39.5 178.1 39.2 177.8 38.9C177.5 38.7 177.1 38.6 176.6 38.6C175.9 38.6 175.3 38.8 174.9 39.3C174.5 39.8 174.3 40.4 174.3 41.3C174.3 42.3 174.5 43 174.9 43.5C175.3 44 175.9 44.2 176.6 44.2C176.9 44.2 177.3 44.1 177.6 44C177.9 43.9 178.2 43.7 178.5 43.5V42.5H176.4V42.4Z" fill="white"/>
<path d="M186.9 37.2H188.5V41.6C188.5 42.3 188.5 42.8 188.6 43C188.7 43.3 188.8 43.6 189.1 43.8C189.4 44 189.7 44.1 190.2 44.1C190.7 44.1 191 44 191.3 43.8C191.6 43.6 191.7 43.4 191.7 43.1C191.7 42.8 191.8 42.4 191.8 41.7V37.2H193.4V41.5C193.4 42.5 193.4 43.2 193.3 43.6C193.2 44 193 44.3 192.8 44.6C192.6 44.9 192.2 45.1 191.8 45.3C191.4 45.5 190.9 45.5 190.2 45.5C189.4 45.5 188.8 45.4 188.4 45.2C188 45 187.7 44.8 187.4 44.5C187.2 44.2 187 43.9 186.9 43.6C186.8 43.1 186.7 42.4 186.7 41.5V37.2H186.9Z" fill="white"/>
<path d="M196.3 45.4V37.2H197.9L201.2 42.7V37.2H202.7V45.4H201L197.7 40.1V45.4H196.3Z" fill="white"/>
<path d="M205.6 45.4V37.2H207.2V45.4H205.6Z" fill="white"/>
<path d="M212 45.4L209.1 37.2H210.9L213 43.2L215 37.2H216.7L213.8 45.4H212Z" fill="white"/>
<path d="M218.7 45.4V37.2H224.8V38.6H220.4V40.4H224.5V41.8H220.4V44H225V45.4H218.7Z" fill="white"/>
<path d="M227.5 45.4V37.2H231C231.9 37.2 232.5 37.3 232.9 37.4C233.3 37.5 233.6 37.8 233.9 38.2C234.1 38.6 234.3 39 234.3 39.5C234.3 40.1 234.1 40.6 233.8 41C233.4 41.4 232.9 41.7 232.2 41.8C232.6 42 232.9 42.2 233.1 42.5C233.3 42.7 233.6 43.2 234 43.8L235 45.4H233L231.8 43.6C231.4 43 231.1 42.6 230.9 42.4C230.7 42.2 230.6 42.1 230.4 42.1C230.2 42 229.9 42 229.6 42H229.3V45.4H227.5ZM229.1 40.7H230.3C231.1 40.7 231.6 40.7 231.8 40.6C232 40.5 232.2 40.4 232.3 40.3C232.4 40.2 232.5 39.9 232.5 39.7C232.5 39.4 232.4 39.2 232.3 39C232.2 38.8 231.9 38.7 231.7 38.7C231.6 38.7 231.2 38.7 230.5 38.7H229.2V40.7H229.1Z" fill="white"/>
<path d="M236.4 42.7L238 42.5C238.1 43 238.3 43.4 238.6 43.7C238.9 44 239.3 44.1 239.8 44.1C240.3 44.1 240.7 44 241 43.8C241.3 43.6 241.4 43.3 241.4 43C241.4 42.8 241.3 42.6 241.2 42.5C241.1 42.4 240.9 42.2 240.6 42.1C240.4 42 240 41.9 239.3 41.7C238.4 41.5 237.8 41.2 237.4 40.9C236.9 40.5 236.6 39.9 236.6 39.3C236.6 38.9 236.7 38.5 237 38.1C237.2 37.7 237.6 37.5 238 37.3C238.4 37.1 239 37 239.6 37C240.6 37 241.4 37.2 241.9 37.7C242.4 38.1 242.7 38.7 242.7 39.5L241.1 39.6C241 39.2 240.9 38.9 240.6 38.7C240.4 38.5 240 38.4 239.6 38.4C239.1 38.4 238.7 38.5 238.5 38.7C238.3 38.8 238.2 39 238.2 39.2C238.2 39.4 238.3 39.6 238.4 39.7C238.6 39.9 239.1 40.1 239.9 40.2C240.7 40.4 241.3 40.6 241.7 40.8C242.1 41 242.4 41.3 242.6 41.6C242.8 42 242.9 42.4 242.9 42.9C242.9 43.4 242.8 43.8 242.5 44.2C242.2 44.6 241.9 44.9 241.4 45.1C240.9 45.3 240.3 45.4 239.6 45.4C238.6 45.4 237.8 45.2 237.2 44.7C236.9 44.4 236.5 43.7 236.4 42.7Z" fill="white"/>
<path d="M245.5 45.4V37.2H247.1V45.4H245.5Z" fill="white"/>
<path d="M251.7 45.4V38.6H249.3V37.2H255.8V38.6H253.4V45.4H251.7Z" fill="white"/>
<path d="M260.2 45.4V42L257.2 37.3H259.1L261 40.5L262.9 37.3H264.8L261.8 42V45.4H260.2Z" fill="white"/>
<path d="M19 10.8C14.3 15.9 9.9 20.8 0 20.8V23.1C10.9 23.1 15.9 17.6 20.7 12.3C25.4 7.2 29.8 2.3 39.7 2.3C49.3 2.3 53.4 7 57.6 11.9C62.2 17.3 67 23 78.9 23V20.7C68.1 20.7 63.9 15.6 59.4 10.4C54.9 5.3 50.4 0 39.6 0C28.8 0 23.8 5.5 19 10.8Z" fill="white"/>
<path d="M19 39.2C14.3 34.1 9.9 29.2 0 29.2V26.9C10.9 26.9 15.9 32.4 20.7 37.7C25.4 42.8 29.8 47.7 39.7 47.7C49.3 47.7 53.4 43 57.6 38.1C62.2 32.7 67 27 78.9 27V29.3C68.1 29.3 63.9 34.4 59.4 39.6C55 44.7 50.4 50.1 39.7 50.1C28.8 50 23.8 44.5 19 39.2Z" fill="white"/>
<path fill-rule="evenodd" clip-rule="evenodd" d="M30.1 24L32.6 22.8V20.4L27.5 22.8V34.3L32.6 37V33.7L30.1 32.1V24Z" fill="white"/>
<path fill-rule="evenodd" clip-rule="evenodd" d="M44.1 20.4V26.5H41.6V22.3L36.9 22.4V36.2L39.2 37.6L41.6 36.6V29.6H39.2V27.9H43.9V38L39.2 40.7L34.6 38V20.4H44.1Z" fill="white"/>
<path fill-rule="evenodd" clip-rule="evenodd" d="M51.3 23.2L49.4 22V32.7L48 33.3V21.4L45.9 20.4V37.4L51.3 34.3V23.2Z" fill="white"/>
<path fill-rule="evenodd" clip-rule="evenodd" d="M25.6 25.9L17.2 21.6L39.4 10.7L61.6 21.6L53.3 25.9V23L55.6 21.6L39.4 13.6L23.1 21.6L25.6 23V25.9Z" fill="white"/>
</g>
<defs>
<clipPath id="clip0">
<rect width="264.8" height="50" fill="white"/>
</clipPath>
</defs>
</svg>
